<svg width="135" height="135" viewBox="0 0 135 135" fill="none" xmlns="http://www.w3.org/2000/svg">
<rect width="135" height="135" rx="16" fill="#ED3803"/>
<rect width="135" height="121" rx="16" fill="#FF6B3A"/>
<path d="M119 0C127.837 9.34173e-07 135 7.16344 135 16V37.2207C117.82 64.1254 87.713 94.5685 34.0186 108.5C18.8385 112.439 7.79006 111.562 0 107.25V16C9.34234e-07 7.16345 7.16344 0 16 0H119Z" fill="#FF7B4F"/>
<mask id="mask0_212_97" style="mask-type:alpha" maskUnits="userSpaceOnUse" x="0" y="0" width="135" height="121">
<rect width="135" height="121" rx="16" fill="#FF6B3A"/>
</mask>
<g mask="url(#mask0_212_97)">
<g clip-path="url(#paint0_diamond_212_97_clip_path)" data-figma-skip-parse="true"><g transform="matrix(-0.000130909 0.0117668 -0.0486163 -0.000190912 101 -0.499999)"><rect x="0" y="0" width="1846.11" height="1177.31" fill="url(#paint0_diamond_212_97)" opacity="1" shape-rendering="crispEdges"/><rect x="0" y="0" width="1846.11" height="1177.31" transform="scale(1 -1)" fill="url(#paint0_diamond_212_97)" opacity="1" shape-rendering="crispEdges"/><rect x="0" y="0" width="1846.11" height="1177.31" transform="scale(-1 1)" fill="url(#paint0_diamond_212_97)" opacity="1" shape-rendering="crispEdges"/><rect x="0" y="0" width="1846.11" height="1177.31" transform="scale(-1)" fill="url(#paint0_diamond_212_97)" opacity="1" shape-rendering="crispEdges"/></g></g><rect x="45" y="-21" width="112" height="41" data-figma-gradient-fill="{&#34;type&#34;:&#34;GRADIENT_DIAMOND&#34;,&#34;stops&#34;:[{&#34;color&#34;:{&#34;r&#34;:1.0,&#34;g&#34;:0.85793423652648926,&#34;b&#34;:0.42497369647026062,&#34;a&#34;:1.0},&#34;position&#34;:0.0},{&#34;color&#34;:{&#34;r&#34;:1.0,&#34;g&#34;:1.0,&#34;b&#34;:1.0,&#34;a&#34;:0.0},&#34;position&#34;:1.0}],&#34;stopsVar&#34;:[{&#34;color&#34;:{&#34;r&#34;:1.0,&#34;g&#34;:0.85793423652648926,&#34;b&#34;:0.42497369647026062,&#34;a&#34;:1.0},&#34;position&#34;:0.0},{&#34;color&#34;:{&#34;r&#34;:1.0,&#34;g&#34;:1.0,&#34;b&#34;:1.0,&#34;a&#34;:0.0},&#34;position&#34;:1.0}],&#34;transform&#34;:{&#34;m00&#34;:-0.26181766390800476,&#34;m01&#34;:-97.232627868652344,&#34;m02&#34;:149.74723815917969,&#34;m10&#34;:23.533676147460938,&#34;m11&#34;:-0.38182437419891357,&#34;m12&#34;:-12.075924873352051},&#34;opacity&#34;:1.0,&#34;blendMode&#34;:&#34;LUMINOSITY&#34;,&#34;visible&#34;:true}" style="mix-blend-mode:luminosity"/>
</g>
<path d="M54.6583 47.016C55.0731 46.4536 55.7368 46.1125 56.4375 46.1125H78.5625C79.2631 46.1125 79.9268 46.4444 80.3417 47.016L90.6667 61.0285C91.2936 61.8766 91.229 63.0474 90.5284 63.831L69.1409 87.431C68.7261 87.8919 68.1268 88.1593 67.5 88.1593C66.8731 88.1593 66.2831 87.8919 65.859 87.431L44.4715 63.831C43.7617 63.0474 43.7064 61.8766 44.3333 61.0285L54.6583 47.016ZM58.2075 50.685C57.9033 50.9155 57.8203 51.3304 58.0139 51.653L63.3054 60.4754L49.7354 61.6C49.3575 61.6277 49.0625 61.9504 49.0625 62.3375C49.0625 62.7247 49.3575 63.0382 49.7354 63.075L67.4354 64.55C67.4723 64.55 67.5184 64.55 67.5553 64.55L85.2553 63.075C85.6332 63.0474 85.9283 62.7247 85.9283 62.3375C85.9283 61.9504 85.6332 61.6369 85.2553 61.6L71.6853 60.4661L76.9768 51.653C77.1704 51.3304 77.0875 50.9063 76.7833 50.685C76.479 50.4638 76.055 50.5007 75.7968 50.7772L67.5 59.7747L59.1939 50.7772C58.9358 50.5007 58.5117 50.4638 58.2075 50.685Z" fill="#ED3803"/>
<defs>
<clipPath id="paint0_diamond_212_97_clip_path"><rect x="45" y="-21" width="112" height="41" style="mix-blend-mode:luminosity"/></clipPath><linearGradient id="paint0_diamond_212_97" x1="0" y1="0" x2="500" y2="500" gradientUnits="userSpaceOnUse">
<stop stop-color="#FFDB6C"/>
<stop offset="1" stop-color="white" stop-opacity="0"/>
</linearGradient>
</defs>
</svg>
